<svg width="20" height="21" fill="none" xmlns="http://www.w3.org/2000/svg">
    <path d="M11.225 3.6c0-.4575-.1818-.89626-.5053-1.21976A1.72488 1.72488 0 0 0 9.49999 1.875a1.725 1.725 0 0 0-1.725 1.725H11.225Zm-4.60001 0c0-.7625.3029-1.49377.84207-2.03293a2.87497 2.87497 0 0 1 4.06584 0A2.87487 2.87487 0 0 1 12.375 3.6h5.75c.1525 0 .2987.06058.4066.16841A.57515.57515 0 0 1 18.7 4.175a.5751.5751 0 0 1-.1684.40658.57513.57513 0 0 1-.4066.16842h-1.2121l-.5578 4.8254a6.30099 6.30099 0 0 0-1.1339-.2024l.5348-4.623H3.24514l1.357 11.7645a2.29993 2.29993 0 0 0 .75488 1.4529 2.29998 2.29998 0 0 0 1.53017.5826h2.1528c.21045.4117.4646.7969.75555 1.15H6.88719a3.45021 3.45021 0 0 1-2.29525-.8745 3.44995 3.44995 0 0 1-1.13175-2.1799L2.08709 4.75H.87499a.57498.57498 0 0 1-.575-.575.57502.57502 0 0 1 .575-.575h5.75ZM19.85 15.675c0 1.3725-.5452 2.6888-1.5157 3.6593A5.17502 5.17502 0 0 1 14.675 20.85a5.17502 5.17502 0 0 1-3.6593-1.5157 5.17503 5.17503 0 0 1-1.51571-3.6593c0-1.3725.54521-2.6888 1.51571-3.6593A5.17502 5.17502 0 0 1 14.675 10.5c1.3725 0 2.6888.5452 3.6593 1.5157A5.17502 5.17502 0 0 1 19.85 15.675Zm-3.0429-1.3179a.57561.57561 0 0 0 .1686-.4071.57561.57561 0 0 0-.5757-.5757.57561.57561 0 0 0-.4071.1686l-1.3179 1.319-1.3179-1.319a.57561.57561 0 0 0-.4071-.1686.57561.57561 0 0 0-.5757.5757c0 .1527.0606.2991.1686.4071l1.319 1.3179-1.319 1.3179a.57455.57455 0 0 0-.1248.1868.57605.57605 0 0 0 0 .4406.57455.57455 0 0 0 .1248.1868.5735.5735 0 0 0 .1868.1248.57605.57605 0 0 0 .4406 0 .57455.57455 0 0 0 .1868-.1248l1.3179-1.3191 1.3179 1.3191a.5735.5735 0 0 0 .1868.1248.57605.57605 0 0 0 .4406 0 .57455.57455 0 0 0 .1868-.1248.57614.57614 0 0 0 .1248-.1868.57605.57605 0 0 0 0-.4406.57614.57614 0 0 0-.1248-.1868L15.488 15.675l1.3191-1.3179Z" fill="#cc0000" />
</svg>