<svg width="35" height="35" fill="none" xmlns="http://www.w3.org/2000/svg">
    <g clip-path="url(#a)" fill="#6A6868">
        <path d="M27.2222 29.1667H5.83333V7.77777H18.6861l1.9445-1.94444H5.83333a1.94445 1.94445 0 0 0-1.94444 1.94444V29.1667c0 .5157.20486 1.0102.56951 1.3749a1.94465 1.94465 0 0 0 1.37493.5695H27.2222a1.9445 1.9445 0 0 0 1.3749-.5695c.3647-.3647.5696-.8592.5696-1.3749V14.5833l-1.9445 1.9445v12.6389Z" />
        <path d="m32.5986 5.67777-3.2764-3.27639a1.56497 1.56497 0 0 0-.5083-.34041 1.56542 1.56542 0 0 0-1.2 0 1.56497 1.56497 0 0 0-.5083.34041L13.7764 15.8083l-1.0792 4.6764c-.046.2267-.0411.4608.0142.6853.0553.2246.1596.4342.3056.6136.146.1794.3299.3243.5385.4241.2086.0999.4368.1523.6681.1534.1196.0132.2402.0132.3597 0l4.7153-1.0403 13.3-13.42636a1.56484 1.56484 0 0 0 .3404-.50834 1.56404 1.56404 0 0 0 .1196-.6c0-.20591-.0406-.4098-.1196-.59999a1.56484 1.56484 0 0 0-.3404-.50834ZM18.2875 19.5222l-3.5583.7875.8264-3.5292L25.5889 6.67916l2.7417 2.74167L18.2875 19.5222ZM29.4292 8.32222l-2.7417-2.74167 1.5069-1.53611 2.7612 2.76111-1.5264 1.51667Z" />
    </g>
    <defs>
        <clipPath id="a">
            <path fill="#fff" d="M0 0h35v35H0z" />
        </clipPath>
    </defs>
</svg>